<mxfile host="app.diagrams.net" agent="Mozilla/5.0 (Macintosh; Intel Mac OS X 10_15_7) AppleWebKit/537.36 (KHTML, like Gecko) Chrome/131.0.0.0 Safari/537.36" version="25.0.1">
  <diagram id="pKDmfLXnfSHfXE5Gqnqo" name="第 1 页">
    <mxGraphModel dx="2901" dy="1145" grid="1" gridSize="10" guides="1" tooltips="1" connect="1" arrows="1" fold="1" page="1" pageScale="1" pageWidth="827" pageHeight="1169" math="0" shadow="1">
      <root>
        <mxCell id="0" />
        <mxCell id="1" parent="0" />
        <mxCell id="5rSIfGWbIll5rETgGY-a-43" value="" style="rounded=0;whiteSpace=wrap;html=1;sketch=1;hachureGap=4;jiggle=2;curveFitting=1;fontFamily=Comic Sans MS;" parent="1" vertex="1">
          <mxGeometry x="100" y="980" width="750" height="350" as="geometry" />
        </mxCell>
        <mxCell id="5rSIfGWbIll5rETgGY-a-1" value="" style="rounded=0;whiteSpace=wrap;html=1;sketch=1;hachureGap=4;jiggle=2;curveFitting=1;fontFamily=Comic Sans MS;" parent="1" vertex="1">
          <mxGeometry x="140" y="490" width="600" height="110" as="geometry" />
        </mxCell>
        <mxCell id="5rSIfGWbIll5rETgGY-a-2" value="" style="rounded=0;whiteSpace=wrap;html=1;sketch=1;hachureGap=4;jiggle=2;curveFitting=1;fontFamily=Comic Sans MS;" parent="1" vertex="1">
          <mxGeometry x="140" y="610" width="600" height="330" as="geometry" />
        </mxCell>
        <mxCell id="5rSIfGWbIll5rETgGY-a-3" value="&lt;font style=&quot;font-size: 14px;&quot;&gt;Acceptor&lt;/font&gt;" style="rounded=1;whiteSpace=wrap;html=1;sketch=1;hachureGap=4;jiggle=2;curveFitting=1;fontFamily=Comic Sans MS;" parent="1" vertex="1">
          <mxGeometry x="380" y="510" width="120" height="60" as="geometry" />
        </mxCell>
        <mxCell id="5rSIfGWbIll5rETgGY-a-4" value="&lt;font style=&quot;font-size: 14px;&quot;&gt;Running in acceptor thread&lt;/font&gt;" style="text;html=1;align=center;verticalAlign=middle;whiteSpace=wrap;rounded=0;fontFamily=Comic Sans MS;" parent="1" vertex="1">
          <mxGeometry x="150" y="490" width="180" height="40" as="geometry" />
        </mxCell>
        <mxCell id="5rSIfGWbIll5rETgGY-a-39" value="" style="edgeStyle=orthogonalEdgeStyle;rounded=0;sketch=1;hachureGap=4;jiggle=2;curveFitting=1;orthogonalLoop=1;jettySize=auto;html=1;fontFamily=Comic Sans MS;" parent="1" source="5rSIfGWbIll5rETgGY-a-5" target="5rSIfGWbIll5rETgGY-a-35" edge="1">
          <mxGeometry relative="1" as="geometry" />
        </mxCell>
        <mxCell id="5rSIfGWbIll5rETgGY-a-5" value="" style="shape=table;startSize=0;container=1;collapsible=0;childLayout=tableLayout;fontSize=16;sketch=1;hachureGap=4;jiggle=2;curveFitting=1;fontFamily=Comic Sans MS;" parent="1" vertex="1">
          <mxGeometry x="234" y="660" width="186" height="130" as="geometry" />
        </mxCell>
        <mxCell id="5rSIfGWbIll5rETgGY-a-6" value="" style="shape=tableRow;horizontal=0;startSize=0;swimlaneHead=0;swimlaneBody=0;strokeColor=inherit;top=0;left=0;bottom=0;right=0;collapsible=0;dropTarget=0;fillColor=none;points=[[0,0.5],[1,0.5]];portConstraint=eastwest;fontSize=16;sketch=1;hachureGap=4;jiggle=2;curveFitting=1;fontFamily=Comic Sans MS;" parent="5rSIfGWbIll5rETgGY-a-5" vertex="1">
          <mxGeometry width="186" height="43" as="geometry" />
        </mxCell>
        <mxCell id="5rSIfGWbIll5rETgGY-a-7" value="PollerEvent(NioChannel)" style="shape=partialRectangle;html=1;whiteSpace=wrap;connectable=0;strokeColor=inherit;overflow=hidden;fillColor=none;top=0;left=0;bottom=0;right=0;pointerEvents=1;fontSize=16;sketch=1;hachureGap=4;jiggle=2;curveFitting=1;fontFamily=Comic Sans MS;" parent="5rSIfGWbIll5rETgGY-a-6" vertex="1">
          <mxGeometry width="186" height="43" as="geometry">
            <mxRectangle width="186" height="43" as="alternateBounds" />
          </mxGeometry>
        </mxCell>
        <mxCell id="5rSIfGWbIll5rETgGY-a-10" value="" style="shape=tableRow;horizontal=0;startSize=0;swimlaneHead=0;swimlaneBody=0;strokeColor=inherit;top=0;left=0;bottom=0;right=0;collapsible=0;dropTarget=0;fillColor=none;points=[[0,0.5],[1,0.5]];portConstraint=eastwest;fontSize=16;sketch=1;hachureGap=4;jiggle=2;curveFitting=1;fontFamily=Comic Sans MS;" parent="5rSIfGWbIll5rETgGY-a-5" vertex="1">
          <mxGeometry y="43" width="186" height="44" as="geometry" />
        </mxCell>
        <mxCell id="5rSIfGWbIll5rETgGY-a-11" value="PollerEvent(NioChannel)" style="shape=partialRectangle;html=1;whiteSpace=wrap;connectable=0;strokeColor=inherit;overflow=hidden;fillColor=none;top=0;left=0;bottom=0;right=0;pointerEvents=1;fontSize=16;sketch=1;hachureGap=4;jiggle=2;curveFitting=1;fontFamily=Comic Sans MS;" parent="5rSIfGWbIll5rETgGY-a-10" vertex="1">
          <mxGeometry width="186" height="44" as="geometry">
            <mxRectangle width="186" height="44" as="alternateBounds" />
          </mxGeometry>
        </mxCell>
        <mxCell id="5rSIfGWbIll5rETgGY-a-14" value="" style="shape=tableRow;horizontal=0;startSize=0;swimlaneHead=0;swimlaneBody=0;strokeColor=inherit;top=0;left=0;bottom=0;right=0;collapsible=0;dropTarget=0;fillColor=none;points=[[0,0.5],[1,0.5]];portConstraint=eastwest;fontSize=16;sketch=1;hachureGap=4;jiggle=2;curveFitting=1;fontFamily=Comic Sans MS;" parent="5rSIfGWbIll5rETgGY-a-5" vertex="1">
          <mxGeometry y="87" width="186" height="43" as="geometry" />
        </mxCell>
        <mxCell id="5rSIfGWbIll5rETgGY-a-15" value="PollerEvent(NioChannel)" style="shape=partialRectangle;html=1;whiteSpace=wrap;connectable=0;strokeColor=inherit;overflow=hidden;fillColor=none;top=0;left=0;bottom=0;right=0;pointerEvents=1;fontSize=16;sketch=1;hachureGap=4;jiggle=2;curveFitting=1;fontFamily=Comic Sans MS;" parent="5rSIfGWbIll5rETgGY-a-14" vertex="1">
          <mxGeometry width="186" height="43" as="geometry">
            <mxRectangle width="186" height="43" as="alternateBounds" />
          </mxGeometry>
        </mxCell>
        <mxCell id="5rSIfGWbIll5rETgGY-a-40" value="" style="edgeStyle=orthogonalEdgeStyle;rounded=0;sketch=1;hachureGap=4;jiggle=2;curveFitting=1;orthogonalLoop=1;jettySize=auto;html=1;fontFamily=Comic Sans MS;" parent="1" source="5rSIfGWbIll5rETgGY-a-24" target="5rSIfGWbIll5rETgGY-a-36" edge="1">
          <mxGeometry relative="1" as="geometry" />
        </mxCell>
        <mxCell id="5rSIfGWbIll5rETgGY-a-24" value="" style="shape=table;startSize=0;container=1;collapsible=0;childLayout=tableLayout;fontSize=16;sketch=1;hachureGap=4;jiggle=2;curveFitting=1;fontFamily=Comic Sans MS;" parent="1" vertex="1">
          <mxGeometry x="480" y="660" width="186" height="130" as="geometry" />
        </mxCell>
        <mxCell id="5rSIfGWbIll5rETgGY-a-25" value="" style="shape=tableRow;horizontal=0;startSize=0;swimlaneHead=0;swimlaneBody=0;strokeColor=inherit;top=0;left=0;bottom=0;right=0;collapsible=0;dropTarget=0;fillColor=none;points=[[0,0.5],[1,0.5]];portConstraint=eastwest;fontSize=16;sketch=1;hachureGap=4;jiggle=2;curveFitting=1;fontFamily=Comic Sans MS;" parent="5rSIfGWbIll5rETgGY-a-24" vertex="1">
          <mxGeometry width="186" height="45" as="geometry" />
        </mxCell>
        <mxCell id="5rSIfGWbIll5rETgGY-a-26" value="PollerEvent(NioChannel)" style="shape=partialRectangle;html=1;whiteSpace=wrap;connectable=0;strokeColor=inherit;overflow=hidden;fillColor=none;top=0;left=0;bottom=0;right=0;pointerEvents=1;fontSize=16;sketch=1;hachureGap=4;jiggle=2;curveFitting=1;fontFamily=Comic Sans MS;" parent="5rSIfGWbIll5rETgGY-a-25" vertex="1">
          <mxGeometry width="186" height="45" as="geometry">
            <mxRectangle width="186" height="45" as="alternateBounds" />
          </mxGeometry>
        </mxCell>
        <mxCell id="5rSIfGWbIll5rETgGY-a-27" value="" style="shape=tableRow;horizontal=0;startSize=0;swimlaneHead=0;swimlaneBody=0;strokeColor=inherit;top=0;left=0;bottom=0;right=0;collapsible=0;dropTarget=0;fillColor=none;points=[[0,0.5],[1,0.5]];portConstraint=eastwest;fontSize=16;sketch=1;hachureGap=4;jiggle=2;curveFitting=1;fontFamily=Comic Sans MS;" parent="5rSIfGWbIll5rETgGY-a-24" vertex="1">
          <mxGeometry y="45" width="186" height="40" as="geometry" />
        </mxCell>
        <mxCell id="5rSIfGWbIll5rETgGY-a-28" value="PollerEvent(NioChannel)" style="shape=partialRectangle;html=1;whiteSpace=wrap;connectable=0;strokeColor=inherit;overflow=hidden;fillColor=none;top=0;left=0;bottom=0;right=0;pointerEvents=1;fontSize=16;sketch=1;hachureGap=4;jiggle=2;curveFitting=1;fontFamily=Comic Sans MS;" parent="5rSIfGWbIll5rETgGY-a-27" vertex="1">
          <mxGeometry width="186" height="40" as="geometry">
            <mxRectangle width="186" height="40" as="alternateBounds" />
          </mxGeometry>
        </mxCell>
        <mxCell id="5rSIfGWbIll5rETgGY-a-29" value="" style="shape=tableRow;horizontal=0;startSize=0;swimlaneHead=0;swimlaneBody=0;strokeColor=inherit;top=0;left=0;bottom=0;right=0;collapsible=0;dropTarget=0;fillColor=none;points=[[0,0.5],[1,0.5]];portConstraint=eastwest;fontSize=16;sketch=1;hachureGap=4;jiggle=2;curveFitting=1;fontFamily=Comic Sans MS;" parent="5rSIfGWbIll5rETgGY-a-24" vertex="1">
          <mxGeometry y="85" width="186" height="45" as="geometry" />
        </mxCell>
        <mxCell id="5rSIfGWbIll5rETgGY-a-30" value="PollerEvent(NioChannel)" style="shape=partialRectangle;html=1;whiteSpace=wrap;connectable=0;strokeColor=inherit;overflow=hidden;fillColor=none;top=0;left=0;bottom=0;right=0;pointerEvents=1;fontSize=16;sketch=1;hachureGap=4;jiggle=2;curveFitting=1;fontFamily=Comic Sans MS;" parent="5rSIfGWbIll5rETgGY-a-29" vertex="1">
          <mxGeometry width="186" height="45" as="geometry">
            <mxRectangle width="186" height="45" as="alternateBounds" />
          </mxGeometry>
        </mxCell>
        <mxCell id="5rSIfGWbIll5rETgGY-a-31" style="edgeStyle=orthogonalEdgeStyle;rounded=0;sketch=1;hachureGap=4;jiggle=2;curveFitting=1;orthogonalLoop=1;jettySize=auto;html=1;exitX=0.5;exitY=1;exitDx=0;exitDy=0;entryX=0.481;entryY=0.023;entryDx=0;entryDy=0;entryPerimeter=0;fontFamily=Comic Sans MS;" parent="1" source="5rSIfGWbIll5rETgGY-a-3" target="5rSIfGWbIll5rETgGY-a-6" edge="1">
          <mxGeometry relative="1" as="geometry">
            <Array as="points">
              <mxPoint x="440" y="630" />
              <mxPoint x="317" y="630" />
            </Array>
          </mxGeometry>
        </mxCell>
        <mxCell id="5rSIfGWbIll5rETgGY-a-32" style="edgeStyle=orthogonalEdgeStyle;rounded=0;sketch=1;hachureGap=4;jiggle=2;curveFitting=1;orthogonalLoop=1;jettySize=auto;html=1;entryX=0.519;entryY=0.022;entryDx=0;entryDy=0;entryPerimeter=0;fontFamily=Comic Sans MS;" parent="1" source="5rSIfGWbIll5rETgGY-a-3" target="5rSIfGWbIll5rETgGY-a-25" edge="1">
          <mxGeometry relative="1" as="geometry">
            <Array as="points">
              <mxPoint x="440" y="630" />
              <mxPoint x="563" y="630" />
            </Array>
          </mxGeometry>
        </mxCell>
        <mxCell id="5rSIfGWbIll5rETgGY-a-33" value="&lt;span style=&quot;font-size: 14px;&quot;&gt;PollerEventQueue&lt;/span&gt;" style="text;html=1;align=center;verticalAlign=middle;whiteSpace=wrap;rounded=0;fontFamily=Comic Sans MS;" parent="1" vertex="1">
          <mxGeometry x="140" y="620" width="180" height="40" as="geometry" />
        </mxCell>
        <mxCell id="5rSIfGWbIll5rETgGY-a-34" value="&lt;span style=&quot;font-size: 14px;&quot;&gt;PollerEventQueue&lt;/span&gt;" style="text;html=1;align=center;verticalAlign=middle;whiteSpace=wrap;rounded=0;fontFamily=Comic Sans MS;" parent="1" vertex="1">
          <mxGeometry x="560" y="620" width="180" height="40" as="geometry" />
        </mxCell>
        <mxCell id="5rSIfGWbIll5rETgGY-a-48" style="edgeStyle=orthogonalEdgeStyle;rounded=0;sketch=1;hachureGap=4;jiggle=2;curveFitting=1;orthogonalLoop=1;jettySize=auto;html=1;fontFamily=Comic Sans MS;" parent="1" source="5rSIfGWbIll5rETgGY-a-35" target="5rSIfGWbIll5rETgGY-a-44" edge="1">
          <mxGeometry relative="1" as="geometry" />
        </mxCell>
        <mxCell id="5rSIfGWbIll5rETgGY-a-35" value="Poller0&lt;div&gt;Selector&lt;/div&gt;" style="rounded=1;whiteSpace=wrap;html=1;sketch=1;hachureGap=4;jiggle=2;curveFitting=1;fontFamily=Comic Sans MS;" parent="1" vertex="1">
          <mxGeometry x="267" y="830" width="120" height="60" as="geometry" />
        </mxCell>
        <mxCell id="5rSIfGWbIll5rETgGY-a-36" value="Poller1&lt;div&gt;selector&lt;/div&gt;" style="rounded=1;whiteSpace=wrap;html=1;sketch=1;hachureGap=4;jiggle=2;curveFitting=1;fontFamily=Comic Sans MS;" parent="1" vertex="1">
          <mxGeometry x="513" y="830" width="120" height="60" as="geometry" />
        </mxCell>
        <mxCell id="5rSIfGWbIll5rETgGY-a-50" style="edgeStyle=orthogonalEdgeStyle;rounded=0;sketch=1;hachureGap=4;jiggle=2;curveFitting=1;orthogonalLoop=1;jettySize=auto;html=1;fontFamily=Comic Sans MS;" parent="1" source="5rSIfGWbIll5rETgGY-a-36" target="5rSIfGWbIll5rETgGY-a-44" edge="1">
          <mxGeometry relative="1" as="geometry" />
        </mxCell>
        <mxCell id="5rSIfGWbIll5rETgGY-a-41" value="&lt;span style=&quot;font-size: 14px;&quot;&gt;poller.register()&lt;/span&gt;" style="text;html=1;align=center;verticalAlign=middle;whiteSpace=wrap;rounded=0;fontFamily=Comic Sans MS;" parent="1" vertex="1">
          <mxGeometry x="170" y="790" width="180" height="40" as="geometry" />
        </mxCell>
        <mxCell id="5rSIfGWbIll5rETgGY-a-42" value="&lt;span style=&quot;font-size: 14px;&quot;&gt;poller.register()&lt;/span&gt;" style="text;html=1;align=center;verticalAlign=middle;whiteSpace=wrap;rounded=0;fontFamily=Comic Sans MS;" parent="1" vertex="1">
          <mxGeometry x="550" y="790" width="180" height="40" as="geometry" />
        </mxCell>
        <mxCell id="5rSIfGWbIll5rETgGY-a-44" value="" style="rounded=0;whiteSpace=wrap;html=1;sketch=1;hachureGap=4;jiggle=2;curveFitting=1;fontFamily=Comic Sans MS;" parent="1" vertex="1">
          <mxGeometry x="253.5" y="1020" width="383" height="150" as="geometry" />
        </mxCell>
        <mxCell id="5rSIfGWbIll5rETgGY-a-51" value="&lt;font style=&quot;font-size: 14px;&quot;&gt;Running in poller thread&lt;/font&gt;" style="text;html=1;align=center;verticalAlign=middle;whiteSpace=wrap;rounded=0;fontFamily=Comic Sans MS;" parent="1" vertex="1">
          <mxGeometry x="360" y="900" width="180" height="40" as="geometry" />
        </mxCell>
        <mxCell id="5rSIfGWbIll5rETgGY-a-52" value="SocketProcessor" style="rounded=1;whiteSpace=wrap;html=1;sketch=1;hachureGap=4;jiggle=2;curveFitting=1;fontFamily=Comic Sans MS;" parent="1" vertex="1">
          <mxGeometry x="294" y="1050" width="156" height="40" as="geometry" />
        </mxCell>
        <mxCell id="5rSIfGWbIll5rETgGY-a-60" style="edgeStyle=orthogonalEdgeStyle;rounded=0;sketch=1;hachureGap=4;jiggle=2;curveFitting=1;orthogonalLoop=1;jettySize=auto;html=1;fontFamily=Comic Sans MS;" parent="1" source="5rSIfGWbIll5rETgGY-a-53" target="5rSIfGWbIll5rETgGY-a-59" edge="1">
          <mxGeometry relative="1" as="geometry" />
        </mxCell>
        <mxCell id="5rSIfGWbIll5rETgGY-a-53" value="SocketProcessor" style="rounded=1;whiteSpace=wrap;html=1;sketch=1;hachureGap=4;jiggle=2;curveFitting=1;fontFamily=Comic Sans MS;" parent="1" vertex="1">
          <mxGeometry x="320" y="1080" width="156" height="40" as="geometry" />
        </mxCell>
        <mxCell id="5rSIfGWbIll5rETgGY-a-55" value="Tomcat thread pool" style="text;html=1;align=center;verticalAlign=middle;whiteSpace=wrap;rounded=0;fontFamily=Comic Sans MS;" parent="1" vertex="1">
          <mxGeometry x="480" y="1050" width="120" height="30" as="geometry" />
        </mxCell>
        <mxCell id="5rSIfGWbIll5rETgGY-a-56" value="&lt;font style=&quot;font-size: 14px;&quot;&gt;Running in poller thread&lt;/font&gt;" style="text;html=1;align=center;verticalAlign=middle;whiteSpace=wrap;rounded=0;fontFamily=Comic Sans MS;" parent="1" vertex="1">
          <mxGeometry x="560" y="980" width="180" height="40" as="geometry" />
        </mxCell>
        <mxCell id="5rSIfGWbIll5rETgGY-a-57" value="Http11Process" style="rounded=1;whiteSpace=wrap;html=1;sketch=1;hachureGap=4;jiggle=2;curveFitting=1;fontFamily=Comic Sans MS;" parent="1" vertex="1">
          <mxGeometry x="680" y="1160" width="156" height="40" as="geometry" />
        </mxCell>
        <mxCell id="5rSIfGWbIll5rETgGY-a-64" style="edgeStyle=orthogonalEdgeStyle;rounded=0;sketch=1;hachureGap=4;jiggle=2;curveFitting=1;orthogonalLoop=1;jettySize=auto;html=1;exitX=0;exitY=0.5;exitDx=0;exitDy=0;entryX=1;entryY=0.5;entryDx=0;entryDy=0;fontFamily=Comic Sans MS;" parent="1" source="5rSIfGWbIll5rETgGY-a-58" target="5rSIfGWbIll5rETgGY-a-62" edge="1">
          <mxGeometry relative="1" as="geometry" />
        </mxCell>
        <mxCell id="5rSIfGWbIll5rETgGY-a-58" value="Http11Process" style="rounded=1;whiteSpace=wrap;html=1;sketch=1;hachureGap=4;jiggle=2;curveFitting=1;fontFamily=Comic Sans MS;" parent="1" vertex="1">
          <mxGeometry x="730" y="1190" width="156" height="40" as="geometry" />
        </mxCell>
        <mxCell id="5rSIfGWbIll5rETgGY-a-61" style="edgeStyle=orthogonalEdgeStyle;rounded=0;sketch=1;hachureGap=4;jiggle=2;curveFitting=1;orthogonalLoop=1;jettySize=auto;html=1;entryX=0.5;entryY=0;entryDx=0;entryDy=0;fontFamily=Comic Sans MS;" parent="1" source="5rSIfGWbIll5rETgGY-a-59" target="5rSIfGWbIll5rETgGY-a-57" edge="1">
          <mxGeometry relative="1" as="geometry" />
        </mxCell>
        <mxCell id="5rSIfGWbIll5rETgGY-a-59" value="ConntectionHandler" style="rounded=1;whiteSpace=wrap;html=1;sketch=1;hachureGap=4;jiggle=2;curveFitting=1;fontFamily=Comic Sans MS;" parent="1" vertex="1">
          <mxGeometry x="680" y="1080" width="156" height="40" as="geometry" />
        </mxCell>
        <mxCell id="5rSIfGWbIll5rETgGY-a-67" value="" style="edgeStyle=orthogonalEdgeStyle;rounded=0;sketch=1;hachureGap=4;jiggle=2;curveFitting=1;orthogonalLoop=1;jettySize=auto;html=1;fontFamily=Comic Sans MS;" parent="1" source="5rSIfGWbIll5rETgGY-a-62" target="5rSIfGWbIll5rETgGY-a-65" edge="1">
          <mxGeometry relative="1" as="geometry" />
        </mxCell>
        <mxCell id="5rSIfGWbIll5rETgGY-a-62" value="CoyoteAdapter" style="rounded=1;whiteSpace=wrap;html=1;sketch=1;hachureGap=4;jiggle=2;curveFitting=1;fontFamily=Comic Sans MS;" parent="1" vertex="1">
          <mxGeometry x="362" y="1190" width="156" height="40" as="geometry" />
        </mxCell>
        <mxCell id="5rSIfGWbIll5rETgGY-a-65" value="ServletContainer" style="rounded=1;whiteSpace=wrap;html=1;sketch=1;hachureGap=4;jiggle=2;curveFitting=1;fontFamily=Comic Sans MS;" parent="1" vertex="1">
          <mxGeometry x="360" y="1260" width="156" height="40" as="geometry" />
        </mxCell>
        <mxCell id="5rSIfGWbIll5rETgGY-a-66" value="" style="rounded=0;whiteSpace=wrap;html=1;sketch=1;hachureGap=4;jiggle=2;curveFitting=1;fontFamily=Comic Sans MS;" parent="1" vertex="1">
          <mxGeometry x="-150" y="970" width="230" height="350" as="geometry" />
        </mxCell>
        <mxCell id="5rSIfGWbIll5rETgGY-a-71" value="register events and wait thread" style="edgeStyle=orthogonalEdgeStyle;rounded=0;sketch=1;hachureGap=4;jiggle=2;curveFitting=1;orthogonalLoop=1;jettySize=auto;html=1;entryX=1;entryY=0.5;entryDx=0;entryDy=0;fontFamily=Comic Sans MS;" parent="1" source="5rSIfGWbIll5rETgGY-a-65" target="5rSIfGWbIll5rETgGY-a-77" edge="1">
          <mxGeometry relative="1" as="geometry">
            <Array as="points">
              <mxPoint x="209" y="1289" />
            </Array>
          </mxGeometry>
        </mxCell>
        <mxCell id="5rSIfGWbIll5rETgGY-a-72" value="" style="shape=table;startSize=0;container=1;collapsible=0;childLayout=tableLayout;fontSize=16;sketch=1;hachureGap=4;jiggle=2;curveFitting=1;fontFamily=Comic Sans MS;" parent="1" vertex="1">
          <mxGeometry x="-128" y="1180" width="186" height="130" as="geometry" />
        </mxCell>
        <mxCell id="5rSIfGWbIll5rETgGY-a-73" value="" style="shape=tableRow;horizontal=0;startSize=0;swimlaneHead=0;swimlaneBody=0;strokeColor=inherit;top=0;left=0;bottom=0;right=0;collapsible=0;dropTarget=0;fillColor=none;points=[[0,0.5],[1,0.5]];portConstraint=eastwest;fontSize=16;sketch=1;hachureGap=4;jiggle=2;curveFitting=1;fontFamily=Comic Sans MS;" parent="5rSIfGWbIll5rETgGY-a-72" vertex="1">
          <mxGeometry width="186" height="43" as="geometry" />
        </mxCell>
        <mxCell id="5rSIfGWbIll5rETgGY-a-74" value="RunnableAdd(NioChannel)" style="shape=partialRectangle;html=1;whiteSpace=wrap;connectable=0;strokeColor=inherit;overflow=hidden;fillColor=none;top=0;left=0;bottom=0;right=0;pointerEvents=1;fontSize=16;sketch=1;hachureGap=4;jiggle=2;curveFitting=1;fontFamily=Comic Sans MS;" parent="5rSIfGWbIll5rETgGY-a-73" vertex="1">
          <mxGeometry width="186" height="43" as="geometry">
            <mxRectangle width="186" height="43" as="alternateBounds" />
          </mxGeometry>
        </mxCell>
        <mxCell id="5rSIfGWbIll5rETgGY-a-75" value="" style="shape=tableRow;horizontal=0;startSize=0;swimlaneHead=0;swimlaneBody=0;strokeColor=inherit;top=0;left=0;bottom=0;right=0;collapsible=0;dropTarget=0;fillColor=none;points=[[0,0.5],[1,0.5]];portConstraint=eastwest;fontSize=16;sketch=1;hachureGap=4;jiggle=2;curveFitting=1;fontFamily=Comic Sans MS;" parent="5rSIfGWbIll5rETgGY-a-72" vertex="1">
          <mxGeometry y="43" width="186" height="44" as="geometry" />
        </mxCell>
        <mxCell id="5rSIfGWbIll5rETgGY-a-76" value="RunnableAdd(NioChannel)" style="shape=partialRectangle;html=1;whiteSpace=wrap;connectable=0;strokeColor=inherit;overflow=hidden;fillColor=none;top=0;left=0;bottom=0;right=0;pointerEvents=1;fontSize=16;sketch=1;hachureGap=4;jiggle=2;curveFitting=1;fontFamily=Comic Sans MS;" parent="5rSIfGWbIll5rETgGY-a-75" vertex="1">
          <mxGeometry width="186" height="44" as="geometry">
            <mxRectangle width="186" height="44" as="alternateBounds" />
          </mxGeometry>
        </mxCell>
        <mxCell id="5rSIfGWbIll5rETgGY-a-77" value="" style="shape=tableRow;horizontal=0;startSize=0;swimlaneHead=0;swimlaneBody=0;strokeColor=inherit;top=0;left=0;bottom=0;right=0;collapsible=0;dropTarget=0;fillColor=none;points=[[0,0.5],[1,0.5]];portConstraint=eastwest;fontSize=16;sketch=1;hachureGap=4;jiggle=2;curveFitting=1;fontFamily=Comic Sans MS;" parent="5rSIfGWbIll5rETgGY-a-72" vertex="1">
          <mxGeometry y="87" width="186" height="43" as="geometry" />
        </mxCell>
        <mxCell id="5rSIfGWbIll5rETgGY-a-78" value="RunnableAdd(NioChannel)" style="shape=partialRectangle;html=1;whiteSpace=wrap;connectable=0;strokeColor=inherit;overflow=hidden;fillColor=none;top=0;left=0;bottom=0;right=0;pointerEvents=1;fontSize=16;sketch=1;hachureGap=4;jiggle=2;curveFitting=1;fontFamily=Comic Sans MS;" parent="5rSIfGWbIll5rETgGY-a-77" vertex="1">
          <mxGeometry width="186" height="43" as="geometry">
            <mxRectangle width="186" height="43" as="alternateBounds" />
          </mxGeometry>
        </mxCell>
        <mxCell id="5rSIfGWbIll5rETgGY-a-82" value="wakerup thread" style="edgeStyle=orthogonalEdgeStyle;rounded=0;sketch=1;hachureGap=4;jiggle=2;curveFitting=1;orthogonalLoop=1;jettySize=auto;html=1;entryX=0;entryY=0.25;entryDx=0;entryDy=0;fontFamily=Comic Sans MS;" parent="1" source="5rSIfGWbIll5rETgGY-a-79" target="5rSIfGWbIll5rETgGY-a-65" edge="1">
          <mxGeometry relative="1" as="geometry" />
        </mxCell>
        <mxCell id="5rSIfGWbIll5rETgGY-a-79" value="BlockPoller&lt;div&gt;Selector&lt;/div&gt;" style="rounded=1;whiteSpace=wrap;html=1;sketch=1;hachureGap=4;jiggle=2;curveFitting=1;fontFamily=Comic Sans MS;" parent="1" vertex="1">
          <mxGeometry x="-100" y="1030" width="120" height="60" as="geometry" />
        </mxCell>
        <mxCell id="5rSIfGWbIll5rETgGY-a-80" value="&lt;font style=&quot;font-size: 14px;&quot;&gt;Running in BlockPoller thread&lt;/font&gt;" style="text;html=1;align=center;verticalAlign=middle;whiteSpace=wrap;rounded=0;fontFamily=Comic Sans MS;" parent="1" vertex="1">
          <mxGeometry x="-140" y="980" width="200" height="40" as="geometry" />
        </mxCell>
        <mxCell id="5rSIfGWbIll5rETgGY-a-81" style="edgeStyle=orthogonalEdgeStyle;rounded=0;sketch=1;hachureGap=4;jiggle=2;curveFitting=1;orthogonalLoop=1;jettySize=auto;html=1;entryX=0.473;entryY=0;entryDx=0;entryDy=0;entryPerimeter=0;fontFamily=Comic Sans MS;" parent="1" source="5rSIfGWbIll5rETgGY-a-79" target="5rSIfGWbIll5rETgGY-a-73" edge="1">
          <mxGeometry relative="1" as="geometry" />
        </mxCell>
        <mxCell id="5rSIfGWbIll5rETgGY-a-84" value="" style="endArrow=none;html=1;rounded=0;sketch=1;hachureGap=4;jiggle=2;curveFitting=1;fontFamily=Comic Sans MS;exitX=0;exitY=1;exitDx=0;exitDy=0;entryX=0.989;entryY=0.156;entryDx=0;entryDy=0;entryPerimeter=0;" parent="1" target="5rSIfGWbIll5rETgGY-a-25" edge="1">
          <mxGeometry width="50" height="50" relative="1" as="geometry">
            <mxPoint x="483.5" y="890" as="sourcePoint" />
            <mxPoint x="636.5" y="670" as="targetPoint" />
          </mxGeometry>
        </mxCell>
        <mxCell id="5rSIfGWbIll5rETgGY-a-85" value="" style="endArrow=none;html=1;rounded=0;sketch=1;hachureGap=4;jiggle=2;curveFitting=1;fontFamily=Comic Sans MS;exitX=0.867;exitY=0.818;exitDx=0;exitDy=0;exitPerimeter=0;" parent="1" source="5rSIfGWbIll5rETgGY-a-2" edge="1">
          <mxGeometry width="50" height="50" relative="1" as="geometry">
            <mxPoint x="629" y="890" as="sourcePoint" />
            <mxPoint x="476" y="670" as="targetPoint" />
          </mxGeometry>
        </mxCell>
        <mxCell id="5rSIfGWbIll5rETgGY-a-86" value="" style="endArrow=none;html=1;rounded=0;sketch=1;hachureGap=4;jiggle=2;curveFitting=1;fontFamily=Comic Sans MS;exitX=1;exitY=1;exitDx=0;exitDy=0;" parent="1" source="5rSIfGWbIll5rETgGY-a-66" edge="1">
          <mxGeometry width="50" height="50" relative="1" as="geometry">
            <mxPoint x="13" y="1205" as="sourcePoint" />
            <mxPoint x="-140" y="985" as="targetPoint" />
          </mxGeometry>
        </mxCell>
        <mxCell id="5rSIfGWbIll5rETgGY-a-87" value="" style="endArrow=none;html=1;rounded=0;sketch=1;hachureGap=4;jiggle=2;curveFitting=1;fontFamily=Comic Sans MS;exitX=0;exitY=1;exitDx=0;exitDy=0;" parent="1" source="5rSIfGWbIll5rETgGY-a-66" edge="1">
          <mxGeometry width="50" height="50" relative="1" as="geometry">
            <mxPoint x="-103" y="1205" as="sourcePoint" />
            <mxPoint x="50" y="985" as="targetPoint" />
          </mxGeometry>
        </mxCell>
        <mxCell id="5rSIfGWbIll5rETgGY-a-88" value="&lt;span style=&quot;color: rgb(51, 51, 51); font-size: 14px; font-style: normal; font-variant-ligatures: normal; font-variant-caps: normal; font-weight: 400; letter-spacing: normal; orphans: 2; text-align: left; text-indent: 0px; text-transform: none; widows: 2; word-spacing: 0px; -webkit-text-stroke-width: 0px; white-space: pre-wrap; text-decoration-thickness: initial; text-decoration-style: initial; text-decoration-color: initial; float: none; display: inline !important;&quot;&gt;&lt;font style=&quot;&quot;&gt;在 tomcat8 及以前的版本之中，可以通过 pollerThreadCount 配置 poller thread 的数目，但是在 tomcat 9.0.21 中 poller thread 数目始终会为 1。&lt;/font&gt;&lt;/span&gt;" style="text;html=1;whiteSpace=wrap;overflow=hidden;rounded=0;fontFamily=Comic Sans MS;" parent="1" vertex="1">
          <mxGeometry x="750" y="690" width="180" height="120" as="geometry" />
        </mxCell>
        <mxCell id="5rSIfGWbIll5rETgGY-a-89" value="&lt;font color=&quot;#333333&quot;&gt;&lt;span style=&quot;font-size: 14px; white-space-collapse: preserve;&quot;&gt;在 9.0.47版本的时候，BlockPoller 应该是被移除了，但是官方文档里却没写，但是Block相关的类已经不存在了&lt;/span&gt;&lt;/font&gt;" style="text;html=1;whiteSpace=wrap;overflow=hidden;rounded=0;fontFamily=Comic Sans MS;" parent="1" vertex="1">
          <mxGeometry x="-360" y="1049" width="180" height="120" as="geometry" />
        </mxCell>
      </root>
    </mxGraphModel>
  </diagram>
</mxfile>
